<?xml version="1.0" encoding="UTF-8" standalone="no"?>
<svg
   width="24"
   height="24"
   viewBox="0 0 24 24"
   fill="none"
   version="1.1"
   id="svg1"
   sodipodi:docname="iconoir_cancel_blue.svg"
   inkscape:version="1.4.2 (f4327f4, 2025-05-13)"
   xmlns:inkscape="http://www.inkscape.org/namespaces/inkscape"
   xmlns:sodipodi="http://sodipodi.sourceforge.net/DTD/sodipodi-0.dtd"
   xmlns="http://www.w3.org/2000/svg"
   xmlns:svg="http://www.w3.org/2000/svg">
  <defs
     id="defs1" />
  <sodipodi:namedview
     id="namedview1"
     pagecolor="#ffffff"
     bordercolor="#000000"
     borderopacity="0.25"
     inkscape:showpageshadow="2"
     inkscape:pageopacity="0.0"
     inkscape:pagecheckerboard="0"
     inkscape:deskcolor="#d1d1d1"
     inkscape:zoom="35.625"
     inkscape:cx="11.985965"
     inkscape:cy="12"
     inkscape:window-width="1920"
     inkscape:window-height="1057"
     inkscape:window-x="-8"
     inkscape:window-y="-8"
     inkscape:window-maximized="1"
     inkscape:current-layer="svg1" />
  <path
     d="M12.0011 11.9998L17.2441 17.2428M6.75806 17.2428L12.0011 11.9998L6.75806 17.2428ZM17.2441 6.75684L12.0001 11.9998L17.2441 6.75684ZM12.0001 11.9998L6.75806 6.75684L12.0001 11.9998Z"
     stroke="#2A3647"
     stroke-width="2"
     stroke-linecap="round"
     stroke-linejoin="round"
     id="path1"
     style="fill:#29abe2;fill-opacity:1" />
  <path
     style="fill:#29abe2;fill-opacity:1;stroke-width:0.0280702"
     d="M 6.5102975,18.193197 C 6.2310623,18.117907 5.9931868,17.916561 5.863738,17.645926 5.7693926,17.448682 5.7584595,17.117006 5.8390918,16.898246 5.8989105,16.735954 5.9870755,16.643788 8.2616925,14.365699 L 10.622215,12.001573 8.2935638,9.6718313 C 6.3929056,7.7702836 5.9494348,7.3126013 5.8807018,7.1816465 5.8039568,7.0354271 5.7965544,6.9973999 5.7972039,6.7527068 5.7977961,6.5296089 5.8089227,6.4618257 5.8630091,6.3518217 6.0785583,5.9134255 6.5651626,5.6824495 7.0054483,5.8095411 c 0.091565,0.026431 0.2106921,0.074099 0.2647271,0.1059293 0.054035,0.03183 1.1403509,1.097442 2.4140351,2.3680259 L 12,10.593649 14.374845,8.2392294 16.749689,5.88481 16.953236,5.8229846 c 0.378024,-0.1148212 0.758559,-0.00893 1.022373,0.2844945 0.18451,0.2052192 0.250294,0.4005744 0.235565,0.6995384 -0.02067,0.4195845 0.107699,0.2714474 -2.487185,2.8701755 L 13.404618,12 l 2.319371,2.322807 c 2.594884,2.598728 2.466514,2.450591 2.487185,2.870175 0.0096,0.195462 8.46e-4,0.267531 -0.04859,0.398643 -0.171864,0.455839 -0.708664,0.732035 -1.164944,0.599391 -0.08986,-0.02612 -0.19636,-0.06765 -0.236657,-0.09227 -0.0403,-0.02462 -1.124771,-1.09418 -2.409943,-2.376793 L 12.014363,13.38993 9.6913907,15.708292 c -1.277635,1.2751 -2.3671832,2.344319 -2.4212183,2.376043 -0.2296938,0.134852 -0.5129683,0.175435 -0.7598779,0.108861 z"
     id="path2" />
</svg>
